<?xml version="1.0" encoding="utf-8"?>
<!-- Generator: Adobe Illustrator 19.1.0, SVG Export Plug-In . SVG Version: 6.00 Build 0)  -->
<svg version="1.1" id="Layer_1" xmlns="http://www.w3.org/2000/svg" xmlns:xlink="http://www.w3.org/1999/xlink" x="0px" y="0px"
	 viewBox="0 0 400 400" style="enable-background:new 0 0 400 400;" xml:space="preserve">
<style type="text/css">
	.st0{fill:none;stroke:#231F20;stroke-width:2;stroke-miterlimit:10;}
	.st1{fill:#231F20;}
</style>
<path class="st1" d="M286.6,94.7c-1.4-3.7-4.2-6.4-7-6.8c-4.9-0.6-24.2,1.2-30.9,2.8c-6.4,1.6-18.5,1.6-18.6,1.6l-33.6,4.2l3.1-12
	l-10.3,5.5l-4-7.5l-8.6,6.1L163.2,82l4.6,18.5c-2.9,4-17.1,25.2-13.1,43c1,4.4,3,8.3,6,11.5c-3,3.2-9.6,11.4-15.9,24.6
	c-7.4,15.6-15.5,41.5-12.3,76.6c-4.7,0.6-18.8,1.7-25.3-5.4c-3-3.3-4-7.9-3-14c0.5-2.4,0.9-3.9,0.9-4c0,0,0,0,0,0c0,0,0,0,0,0
	l-3.2-0.9c-0.3,1.2-0.6,2.3-0.8,3.5c-1.6,7.8-4.2,26.6,5.6,35.6c6.6,6.1,17.4,6.4,32,1.1c0,0,1.3-0.3,2.3,0.4
	c0.9,0.7,1.4,2.1,1.5,4.2l0.1,1.7l65.1-4.7l0.4-0.9c0.1-0.1,0.9-2.1,1-4.6c0.3,0.8,0.9,1.5,1.8,2c1.2,0.7,2.6,0.9,4,0.5
	c1.4-0.4,2.6-1.3,3.5-2.2c0.5,1.5,1.4,3,2.8,3.8c0.5,0.3,1.3,0.6,2.2,0.6c0.5,0,1.1-0.1,1.8-0.3c1.4-0.5,2.4-1.5,2.8-2.9
	c0.4-1.2,0.3-2.6-0.1-3.9c1.8,0.5,3.8,0.8,5.4,0.2c1.2-0.5,2-1.4,2.4-2.6c0.3-1,0.2-2.1-0.4-3c-2-3.1-9.5-4.3-13.1-4.7l-1.9-13.3
	c6.5,0,11.9,0,11.9,0l1.1,0l0.4-1c0.1-0.2,2.1-5.1-1-9.6c-2.5-3.7-7.5-6-15-6.7l-0.2-1.6l8.3-7.9l-6.7-6.1
	c5.7-6.7,11-15.7,15.7-26.7l10.9,55.7l-4.2,2.6l-0.1,0.1c-1.4,1-5.9,4.7-5.7,8c0.1,1.2,0.8,2.3,1.9,2.9c1.2,0.7,2.6,0.9,4,0.5
	c1.4-0.4,2.6-1.3,3.5-2.2c0.5,1.5,1.4,3,2.8,3.8c0.5,0.3,1.3,0.6,2.2,0.6c0.5,0,1.1-0.1,1.8-0.3c1.4-0.5,2.4-1.5,2.8-2.9
	c0.4-1.2,0.3-2.6-0.1-3.9c1.8,0.5,3.8,0.8,5.4,0.2c1.2-0.5,2-1.4,2.4-2.6c0.3-1,0.2-2.1-0.4-3c-2-3.1-9.6-4.3-13.1-4.7l-11.8-60.5
	c5.3-13.5,7.9-24.9,7.9-25l-1.2-0.3c0.5,0,0.9-0.1,1.4-0.1c10.4-0.9,21-5.2,30.8-12.4c10.1-7.3,8.7-26.7,8.3-30.8
	C287.7,104.6,288.4,99.5,286.6,94.7z M279.2,91.3c1.2,0.2,3.2,1.8,4.2,4.7c0.6,1.6,1.6,5.3-0.6,9.1c-4.1,1-13.1,2.1-14.4-2.2
	c-1.5-4.7-0.9-9.1-0.4-11.3C273.1,91.2,277.5,91.1,279.2,91.3z M217.8,264c-0.4,0.8-2.1,3.2-3.8,3.6c-0.5,0.1-0.9,0.1-1.4-0.2
	c-0.2-0.1-0.2-0.2-0.2-0.2c-0.2-0.6,1.7-3.1,4.3-5.1l3.4-2.1L217.8,264z M224.9,268.8c-0.1,0.2-0.2,0.5-0.8,0.7
	c-0.6,0.2-0.9,0.1-1.1,0c-1.1-0.7-1.9-3.3-2.1-4.9l-0.6-4.8l0.3-0.2l2.7,4C224.1,265,225.3,267.5,224.9,268.8z M232.6,262.4
	c-0.1,0.3-0.3,0.4-0.5,0.5c-1.4,0.5-4.8-0.7-6.6-1.7l-3.8-2.1C227.5,259.8,232.3,261.4,232.6,262.4z M219,256.6l-4.2,2.7l-0.1,0.1
	c-1.3,0.9-5,4-5.6,7c-0.2-1.4-0.7-2.8-1.6-4.2c-3.1-4.4-9.8-6.6-20.1-6.4l13.2-13.4c2.3,0,9.4,0,16.4,0.1L219,256.6z M206.7,220.4
	c2.2-1.3,4.3-2.8,6.4-4.7l1,6.6l-3,2.9C210.2,223.6,208.8,221.9,206.7,220.4z M211.7,228.2h0.4c1,0,1.9,0,2.8,0.1l1.6,10.8
	c-4.7,0-9.4,0-12.6,0l4.7-4.8C209.2,233.8,211.7,231.6,211.7,228.2z M230.1,233.7c1.4,2,1.2,4.2,1,5.4c-2.1,0-6.4,0-11.2,0
	l-1.5-10.5C224.3,229.3,228.3,231,230.1,233.7z M221,215.7l-4,3.8l-0.9-6.6c0.3-0.3,0.6-0.6,0.9-0.9L221,215.7z M244.6,245.8
	c-0.4,0.8-2.1,3.2-3.8,3.6c-0.5,0.1-0.9,0.1-1.4-0.2c-0.2-0.1-0.2-0.2-0.2-0.2c-0.2-0.6,1.7-3.1,4.3-5.1l3.4-2.1L244.6,245.8z
	 M251.7,250.7c-0.1,0.2-0.2,0.5-0.8,0.7c-0.6,0.2-0.9,0.1-1.1,0c-1.1-0.7-1.9-3.3-2.1-4.9l-0.6-4.8l0.3-0.2l2.7,4
	C251,246.8,252.1,249.4,251.7,250.7z M259.4,244.3c-0.1,0.3-0.3,0.4-0.5,0.5c-1.4,0.5-4.8-0.7-6.6-1.7l-3.8-2.1
	C254.4,241.7,259.1,243.3,259.4,244.3z M274.2,136.7c-9.3,6.8-19.4,10.8-29.1,11.7c-9.1,0.8-16.7,0.5-22.1-0.8
	c-0.7-0.2-1.5-0.5-1.7-1.1c-0.3-0.9,0.5-2.4,0.9-3l-2.7-2c-0.2,0.3-2.3,3.4-1.3,6.2c0.4,1.1,1.4,2.5,4,3.2c5,1.2,11.7,1.6,19.6,1.2
	c-1.2,5-9.7,37.9-26.3,56.5l-0.7-5.1l-1.8,0.4c-3.9,0.9-5.2-1.9-5.5-2.7l-2.4-17.5l-3.3,0.5l2.4,17.6l0.1,0.3c0.7,2.1,3,5.6,7.7,5.3
	l0.6,4.2c-2.8,2.7-5.9,5-9.1,6.7c-5.5-3-13.8-5.8-25-8.3l-0.7,3.3c26.1,5.9,30.1,11.9,30.6,14.2c0,0.1,0,0.2,0,0.3l-0.4,0.4h0.5
	c0,2-1.8,3.3-1.8,3.4l-27.7,28l4.5-0.3c14.3-1,19.5,2,21.4,4.7c1.6,2.4,1.2,5.2,0.8,6.6l-59.7,4.3c-0.3-2.3-1.3-4.1-2.7-5.1
	c-2.3-1.7-4.9-1-5.3-0.8c-13.4,4.9-23.1,4.8-28.7-0.4c-4.6-4.2-6-11.2-6.1-17.9c0.5,0.9,1.1,1.7,1.8,2.5c9,9.9,29.1,6.3,29.9,6.2
	l1.5-0.3l-0.2-1.5c-5.8-59.3,20.7-92.9,27.2-100.2c1.7,1.4,3.5,2.7,5.6,3.8c4.2,2.3,8.2,3.4,12,3.4c2.9,0,5.7-0.7,8.3-2
	c15.9-8.3,19.6-39.4,19.7-40.7l-3.3-0.4c0,0.3-3.6,30.6-17.9,38.1c-4.9,2.6-10.7,2.1-17.1-1.3c-6.8-3.6-11-8.8-12.4-15.4
	c-4-17.9,12.8-40.7,13-40.9l0.5-0.6l-3.2-12.9l8.8,4.4l7.1-5.1l3.8,7.1l6.5-3.5l-2.5,9.3l38.2-4.8c1.3,0,12.8-0.1,19.3-1.7
	c3.2-0.8,9.2-1.6,15-2.1c-0.5,2.7-0.8,7.2,0.7,12c1.3,4.3,6,5.5,10.4,5.5c2,0,4-0.2,5.6-0.5C281.5,112.1,282.9,130.4,274.2,136.7z
	 M240.4,117.5c1.2,2.8-0.3,3.7-4.2,5.9l-1.1,0.6c-1.6,0.9-3.1,1.4-4.6,1.4c-0.6,0-1.1-0.1-1.7-0.2c-2.5-0.7-3.7-2.6-3.8-2.8
	c-0.1-0.1-2.5-4.3-1.4-8.3c0.6-2,1.9-3.6,4-4.7c7.2-3.9,12,0,12.2,0.2l-2.1,2.6c-0.1-0.1-3.3-2.6-8.4,0.2c-1.3,0.7-2,1.5-2.3,2.7
	c-0.7,2.6,1.1,5.7,1.1,5.7c0.3,0.5,1.8,2.6,5.5,0.5l0.9-0.5c-0.8-0.7-1.4-1.7-1.4-2.9c0-2.1,1.7-3.8,3.8-3.8
	C238.7,114,240.3,115.5,240.4,117.5z M105.2,280.7l-0.6,3.3c-5.5-1.1-10.1-5.6-11.3-11.1l3.3-0.7
	C97.4,276.4,100.9,279.9,105.2,280.7z M97,287.2l0,3.4c0,0-0.1,0-0.1,0c-3.4,0-6.5-2.6-7.2-5.9L93,284
	C93.4,285.8,95.2,287.2,97,287.2C97,287.2,97,287.2,97,287.2z M101,218.8L99,216c2.1-1.4,4.6-2,7.1-1.5l0.5,0.1l0.4,0.4
	c1.4,1.4,2.2,3.3,2.5,5.3l-3.3,0.4c-0.1-1.1-0.5-2.1-1.2-2.9C103.6,217.6,102.1,218,101,218.8z M109.3,210.1l0.1-3.4
	c3.9,0.1,7.6,2.8,8.8,6.5l-3.2,1.1C114.2,211.9,111.8,210.1,109.3,210.1z"/>
</svg>
